HIERARCHY
ROOT Hips
{
  OFFSET 43.1054 81.2759 -17.0066
  CHANNELS 6 Xposition Yposition Zposition Zrotation Xrotation Yrotation
  JOINT Chest
  {
    OFFSET 1.23234e-007 14.8421 1.27319e-009
    CHANNELS 6 Xposition Yposition Zposition Zrotation Xrotation Yrotation
    JOINT LeftCollar
    {
      OFFSET 6.64893 27.3161 3.27471
      CHANNELS 6 Xposition Yposition Zposition Zrotation Xrotation Yrotation
      JOINT LeftUpArm
      {
        OFFSET 10.8584 2.41798 -0.945791
        CHANNELS 6 Xposition Yposition Zposition Zrotation Xrotation Yrotation
        JOINT LeftLowArm
        {
          OFFSET 3.77631 -24.5904 -1.70468
          CHANNELS 6 Xposition Yposition Zposition Zrotation Xrotation Yrotation
          JOINT LeftHand
          {
            OFFSET 1.01026 -21.1231 1.74131
            CHANNELS 6 Xposition Yposition Zposition Zrotation Xrotation Yrotation
            End Site
            {
              OFFSET 1.17583e-006 -9.81266 -2.89439e-008
            }
          }
        }
      }
    }
    JOINT RightCollar
    {
      OFFSET -6.11406 27.2248 4.23427
      CHANNELS 6 Xposition Yposition Zposition Zrotation Xrotation Yrotation
      JOINT RightUpArm
      {
        OFFSET -10.4566 2.3285 -0.910794
        CHANNELS 6 Xposition Yposition Zposition Zrotation Xrotation Yrotation
        JOINT RightLowArm
        {
          OFFSET -3.86856 -25.191 -1.74633
          CHANNELS 6 Xposition Yposition Zposition Zrotation Xrotation Yrotation
          JOINT RightHand
          {
            OFFSET -1.04759 -20.6242 1.75213
            CHANNELS 6 Xposition Yposition Zposition Zrotation Xrotation Yrotation
            End Site
            {
              OFFSET -2.03487e-006 -9.50367 -4.31372e-006
            }
          }
        }
      }
    }
    JOINT Neck
    {
      OFFSET 0.51659 29.8236 6.51843
      CHANNELS 6 Xposition Yposition Zposition Zrotation Xrotation Yrotation
      JOINT Head
      {
        OFFSET 1.16803e-007 7.47049 6.44171e-007
        CHANNELS 6 Xposition Yposition Zposition Zrotation Xrotation Yrotation
        End Site
        {
          OFFSET -4.32676e-008 16.2908 2.16786e-007
        }
      }
    }
  }
  JOINT LeftUpLeg
  {
    OFFSET 9 -3.38008e-006 -5.22997e-009
    CHANNELS 6 Xposition Yposition Zposition Zrotation Xrotation Yrotation
    JOINT LeftLowLeg
    {
      OFFSET -0.575 -51.431 3.90177
      CHANNELS 6 Xposition Yposition Zposition Zrotation Xrotation Yrotation
      JOINT LeftFoot
      {
        OFFSET 2.13082e-007 -43.5882 -3.90177
        CHANNELS 6 Xposition Yposition Zposition Zrotation Xrotation Yrotation
        End Site
        {
          OFFSET 7.44796e-007 -6.93413 15.0046
        }
      }
    }
  }
  JOINT RightUpLeg
  {
    OFFSET -9 6.86154e-007 -3.1954e-009
    CHANNELS 6 Xposition Yposition Zposition Zrotation Xrotation Yrotation
    JOINT RightLowLeg
    {
      OFFSET 0.575 -51.4311 3.90177
      CHANNELS 6 Xposition Yposition Zposition Zrotation Xrotation Yrotation
      JOINT RightFoot
      {
        OFFSET -7.46079e-007 -43.5882 -3.90177
        CHANNELS 6 Xposition Yposition Zposition Zrotation Xrotation Yrotation
        End Site
        {
          OFFSET 4.66716e-007 -6.93413 15.0046
        }
      }
    }
  }
}
MOTION
Frames:	12
Frame Time:	0.0333333
48.0986 87.7813 -11.8172 -1.33844 -5.56251 -4.42178 1.23234e-007 14.8421 1.27319e-009 -3.87748 -2.97037 16.0195 6.64893 27.3161 3.27471 -2.94784 5.93879 -4.20517 10.8584 2.41798 -0.945791 -4.65676 16.778 11.6918 3.77631 -24.5904 -1.70468 -32.6651 -83.9853 8.20846 1.01026 -21.1231 1.74131 -13.0563 -8.35463 -3.46774 -6.11406 27.2248 4.23427 -1.96452 7.32629 3.42623 -10.4566 2.3285 -0.910794 -135.689 -28.0306 -90.8583 -3.86856 -25.191 -1.74633 104.341 -63.3456 176.005 -1.04759 -20.6242 1.75213 -23.5117 12.5601 -0.955658 0.51659 29.8236 6.51843 13.0827 -0.0369135 -11.631 1.16803e-007 7.47049 6.44171e-007 -6.42959 8.02018 -4.72311 9 -3.38008e-006 -5.22997e-009 21.7555 -11.6594 20.8525 -0.575 -51.431 3.90177 -7.4083 51.279 -21.598 2.13082e-007 -43.5882 -3.90177 23.3382 -13.7067 0.429019 -9 6.86154e-007 -3.1954e-009 -20.8229 -14.124 -21.4333 0.575 -51.4311 3.90177 -10.5026 49.8083 32.8604 -7.46079e-007 -43.5882 -3.90177 -11.3441 -16.7767 -0.417706 
48.0747 87.8115 -11.8486 -1.27524 -5.60375 -4.53275 1.23234e-007 14.8421 1.27319e-009 -4.40162 -2.99892 15.7483 6.64893 27.3161 3.27471 -2.94784 5.93879 -4.20517 10.8584 2.41798 -0.945791 -4.1499 16.149 11.0053 3.77631 -24.5904 -1.70468 -38.0255 -83.9284 3.23051 1.01026 -21.1231 1.74131 -12.3488 -9.26014 -3.47663 -6.11406 27.2248 4.23427 -1.96452 7.32629 3.42623 -10.4566 2.3285 -0.910794 -132.725 -32.5115 -90.776 -3.86856 -25.191 -1.74633 104.418 -64.3327 164.923 -1.04759 -20.6242 1.75213 -22.1756 9.62696 -1.32033 0.51659 29.8236 6.51843 14.0121 -0.0605278 -11.8749 1.16803e-007 7.47049 6.44171e-007 -6.84442 8.23565 -4.5335 9 -3.38008e-006 -5.22997e-009 21.7102 -11.5468 20.8982 -0.575 -51.431 3.90177 -7.45942 51.1674 -21.5636 2.13082e-007 -43.5882 -3.90177 23.2591 -13.6212 0.409651 -9 6.86154e-007 -3.1954e-009 -20.8473 -14.1492 -21.3966 0.575 -51.4311 3.90177 -10.5631 49.7931 32.9374 -7.46079e-007 -43.5882 -3.90177 -11.3792 -16.8721 -0.428191 
48.0368 87.8391 -11.8876 -1.13246 -5.6061 -4.73755 1.23234e-007 14.8421 1.27319e-009 -4.3971 -3.08805 15.2126 6.64893 27.3161 3.27471 -2.94784 5.93879 -4.20517 10.8584 2.41798 -0.945791 -3.9314 15.0397 11.3708 3.77631 -24.5904 -1.70468 -33.5954 -83.3265 6.80626 1.01026 -21.1231 1.74131 -13.9355 -9.28571 -3.81466 -6.11406 27.2248 4.23427 -1.96452 7.32629 3.42623 -10.4566 2.3285 -0.910794 -131.103 -38.6394 -91.3373 -3.86856 -25.191 -1.74633 102.695 -65.2578 160.007 -1.04759 -20.6242 1.75213 -21.8216 11.1358 -1.11603 0.51659 29.8236 6.51843 14.2826 1.23652 -12.2462 1.16803e-007 7.47049 6.44171e-007 -7.58289 6.83951 -4.58371 9 -3.38008e-006 -5.22997e-009 21.6035 -11.427 20.9694 -0.575 -51.431 3.90177 -7.55717 51.0133 -21.4376 2.13082e-007 -43.5882 -3.90177 23.1688 -13.5509 0.393327 -9 6.86154e-007 -3.1954e-009 -20.9325 -14.2906 -21.3545 0.575 -51.4311 3.90177 -10.6684 49.7886 33.1219 -7.46079e-007 -43.5882 -3.90177 -11.3668 -16.7706 -0.418507 
48.1645 87.8636 -11.8439 -0.610228 -6.28649 -4.93952 1.23234e-007 14.8421 1.27319e-009 -4.97882 -2.4687 14.5552 6.64893 27.3161 3.27471 -2.94784 5.93879 -4.20517 10.8584 2.41798 -0.945791 -3.65979 14.0609 10.8191 3.77631 -24.5904 -1.70468 -31.293 -83.222 8.59276 1.01026 -21.1231 1.74131 -13.5204 -9.19961 -3.71189 -6.11406 27.2248 4.23427 -1.96452 7.32629 3.42623 -10.4566 2.3285 -0.910794 -128.319 -46.0144 -92.1285 -3.86856 -25.191 -1.74633 100.519 -65.9962 152.71 -1.04759 -20.6242 1.75213 -20.3305 8.83916 -1.33772 0.51659 29.8236 6.51843 13.8285 1.50847 -11.969 1.16803e-007 7.47049 6.44171e-007 -7.2141 7.17352 -4.51002 9 -3.38008e-006 -5.22997e-009 20.8634 -10.6259 20.7553 -0.575 -51.431 3.90177 -7.67674 50.7778 -21.1416 2.13082e-007 -43.5882 -3.90177 23.14 -13.5119 0.384739 -9 6.86154e-007 -3.1954e-009 -21.6208 -13.8018 -21.5108 0.575 -51.4311 3.90177 -10.9738 49.8391 33.9285 -7.46079e-007 -43.5882 -3.90177 -11.48 -16.77 -0.425147 
48.1188 87.8906 -11.9098 -0.540223 -6.32477 -5.36102 1.23234e-007 14.8421 1.27319e-009 -5.12963 -2.23379 13.859 6.64893 27.3161 3.27471 -2.94784 5.93879 -4.20517 10.8584 2.41798 -0.945791 -3.41513 13.1335 11.3884 3.77631 -24.5904 -1.70468 -36.258 -83.0802 4.3153 1.01026 -21.1231 1.74131 -13.4309 -9.14584 -3.6836 -6.11406 27.2248 4.23427 -1.96452 7.32629 3.42623 -10.4566 2.3285 -0.910794 -123.783 -54.5766 -91.6813 -3.86856 -25.191 -1.74633 99.8796 -66.1078 143.331 -1.04759 -20.6242 1.75213 -18.8093 7.61015 -1.38963 0.51659 29.8236 6.51843 12.9819 1.00456 -11.2113 1.16803e-007 7.47049 6.44171e-007 -6.43483 8.05021 -4.25304 9 -3.38008e-006 -5.22997e-009 20.8425 -10.4171 20.9141 -0.575 -51.431 3.90177 -7.81021 50.6461 -20.987 2.13082e-007 -43.5882 -3.90177 22.997 -13.3987 0.358818 -9 6.86154e-007 -3.1954e-009 -21.5595 -14.0275 -21.2871 0.575 -51.4311 3.90177 -11.1902 49.8323 34.1853 -7.46079e-007 -43.5882 -3.90177 -11.4823 -16.7294 -0.421665 
47.8945 87.9039 -12.0835 -0.901645 -5.57816 -5.81256 1.23234e-007 14.8421 1.27319e-009 -4.81487 -2.70508 13.0364 6.64893 27.3161 3.27471 -2.94784 5.93879 -4.20517 10.8584 2.41798 -0.945791 -3.06445 12.1851 11.9207 3.77631 -24.5904 -1.70468 -39.4557 -82.874 1.23591 1.01026 -21.1231 1.74131 -13.6579 -9.49092 -3.79287 -6.11406 27.2248 4.23427 -1.96452 7.32629 3.42623 -10.4566 2.3285 -0.910794 -116.033 -63.9254 -87.5889 -3.86856 -25.191 -1.74633 100.45 -66.4562 138.308 -1.04759 -20.6242 1.75213 -18.7242 9.66565 -1.18355 0.51659 29.8236 6.51843 12.9923 0.60054 -10.8711 1.16803e-007 7.47049 6.44171e-007 -6.89935 8.35472 -3.82856 9 -3.38008e-006 -5.22997e-009 21.568 -11.0004 21.45 -0.575 -51.431 3.90177 -7.95347 50.6674 -20.8579 2.13082e-007 -43.5882 -3.90177 22.9367 -13.3733 0.35252 -9 6.86154e-007 -3.1954e-009 -20.7731 -15.0171 -20.7689 0.575 -51.4311 3.90177 -11.2265 49.8172 33.8339 -7.46079e-007 -43.5882 -3.90177 -11.375 -16.6007 -0.404017 
47.8044 87.9138 -12.1307 -0.934824 -5.53802 -6.10434 1.23234e-007 14.8421 1.27319e-009 -4.72858 -2.5023 12.0879 6.64893 27.3161 3.27471 -2.94784 5.93879 -4.20517 10.8584 2.41798 -0.945791 -2.88033 11.3869 12.4357 3.77631 -24.5904 -1.70468 -40.4066 -82.4046 1.07409 1.01026 -21.1231 1.74131 -13.8437 -9.92113 -3.91001 -6.11406 27.2248 4.23427 -1.96452 7.32629 3.42623 -10.4566 2.3285 -0.910794 -97.9743 -73.3841 -74.0852 -3.86856 -25.191 -1.74633 100.208 -66.6599 130.531 -1.04759 -20.6242 1.75213 -17.5574 8.87308 -1.20873 0.51659 29.8236 6.51843 12.0675 -0.066095 -10.1369 1.16803e-007 7.47049 6.44171e-007 -6.44429 8.96942 -3.57299 9 -3.38008e-006 -5.22997e-009 21.6591 -10.922 21.5477 -0.575 -51.431 3.90177 -7.97063 50.5999 -20.8219 2.13082e-007 -43.5882 -3.90177 22.8741 -13.3268 0.341926 -9 6.86154e-007 -3.1954e-009 -20.5568 -15.2337 -20.5026 0.575 -51.4311 3.90177 -11.3954 49.8388 33.8763 -7.46079e-007 -43.5882 -3.90177 -11.3676 -16.5985 -0.403393 
47.7215 87.9154 -12.1774 -0.930062 -5.5186 -6.47164 1.23234e-007 14.8421 1.27319e-009 -4.70631 -2.1218 11.5003 6.64893 27.3161 3.27471 -2.94784 5.93879 -4.20517 10.8584 2.41798 -0.945791 -2.82023 10.4215 12.3182 3.77631 -24.5904 -1.70468 -37.6044 -82.1286 3.26212 1.01026 -21.1231 1.74131 -13.5577 -10.3356 -3.92191 -6.11406 27.2248 4.23427 -1.96452 7.32629 3.42623 -10.4566 2.3285 -0.910794 -52.8808 -77.6127 -33.769 -3.86856 -25.191 -1.74633 101.655 -66.7186 123.341 -1.04759 -20.6242 1.75213 -15.149 7.80783 -1.17092 0.51659 29.8236 6.51843 11.4335 -1.35203 -9.5129 1.16803e-007 7.47049 6.44171e-007 -6.37326 9.72315 -3.27093 9 -3.38008e-006 -5.22997e-009 21.7047 -10.7921 21.6503 -0.575 -51.431 3.90177 -8.02113 50.5259 -20.6931 2.13082e-007 -43.5882 -3.90177 22.8171 -13.2524 0.325881 -9 6.86154e-007 -3.1954e-009 -20.4279 -15.4582 -20.2976 0.575 -51.4311 3.90177 -11.5404 49.8623 33.9768 -7.46079e-007 -43.5882 -3.90177 -11.3873 -16.6572 -0.40971 
47.6704 87.881 -12.2374 -0.964068 -5.45744 -6.71563 1.23234e-007 14.8421 1.27319e-009 -4.31708 -1.87791 11.1869 6.64893 27.3161 3.27471 -2.94784 5.93879 -4.20517 10.8584 2.41798 -0.945791 -2.82251 9.34368 12.0003 3.77631 -24.5904 -1.70468 -34.4074 -81.7022 6.24167 1.01026 -21.1231 1.74131 -13.4259 -10.6406 -3.94687 -6.11406 27.2248 4.23427 -1.96452 7.32629 3.42623 -10.4566 2.3285 -0.910794 -14.8753 -72.9973 0.352434 -3.86856 -25.191 -1.74633 102.863 -66.8596 118.669 -1.04759 -20.6242 1.75213 -13.5774 7.23433 -1.11554 0.51659 29.8236 6.51843 10.5137 -2.15163 -8.9298 1.16803e-007 7.47049 6.44171e-007 -5.91232 9.92915 -3.18257 9 -3.38008e-006 -5.22997e-009 21.7842 -10.8004 21.7419 -0.575 -51.431 3.90177 -8.04138 50.5439 -20.5199 2.13082e-007 -43.5882 -3.90177 22.8848 -13.375 0.351864 -9 6.86154e-007 -3.1954e-009 -20.3764 -15.6932 -20.2465 0.575 -51.4311 3.90177 -11.5588 49.9918 34.1617 -7.46079e-007 -43.5882 -3.90177 -11.417 -16.6808 -0.41353 
47.602 87.8605 -12.2571 -1.05524 -5.45774 -6.88962 1.23234e-007 14.8421 1.27319e-009 -4.10148 -1.24525 11.2857 6.64893 27.3161 3.27471 -2.94784 5.93879 -4.20517 10.8584 2.41798 -0.945791 -2.74851 8.25832 11.715 3.77631 -24.5904 -1.70468 -34.0327 -81.4072 6.83782 1.01026 -21.1231 1.74131 -13.8464 -10.6946 -4.05017 -6.11406 27.2248 4.23427 -1.96452 7.32629 3.42623 -10.4566 2.3285 -0.910794 -0.937778 -64.5386 10.5308 -3.86856 -25.191 -1.74633 105.57 -66.3551 114.753 -1.04759 -20.6242 1.75213 -12.276 6.83523 -1.05467 0.51659 29.8236 6.51843 10.099 -4.25137 -8.57005 1.16803e-007 7.47049 6.44171e-007 -5.87217 11.0729 -3.08108 9 -3.38008e-006 -5.22997e-009 21.9626 -10.7593 21.8702 -0.575 -51.431 3.90177 -8.07978 50.6279 -20.6265 2.13082e-007 -43.5882 -3.90177 22.873 -13.3242 0.341372 -9 6.86154e-007 -3.1954e-009 -20.2599 -15.7969 -20.1893 0.575 -51.4311 3.90177 -11.5526 50.0857 34.2415 -7.46079e-007 -43.5882 -3.90177 -11.4232 -16.6356 -0.409881 
47.5998 87.7928 -12.2501 -1.05457 -5.46939 -6.94287 1.23234e-007 14.8421 1.27319e-009 -4.07228 -0.840538 11.3201 6.64893 27.3161 3.27471 -2.94784 5.93879 -4.20517 10.8584 2.41798 -0.945791 -2.70522 7.41235 11.3662 3.77631 -24.5904 -1.70468 -33.1273 -81.207 7.45703 1.01026 -21.1231 1.74131 -13.6584 -10.3819 -3.95233 -6.11406 27.2248 4.23427 -1.96452 7.32629 3.42623 -10.4566 2.3285 -0.910794 4.1147 -55.8274 11.8333 -3.86856 -25.191 -1.74633 106.622 -66.2725 110.037 -1.04759 -20.6242 1.75213 -10.9503 6.62142 -0.977777 0.51659 29.8236 6.51843 9.96551 -5.38313 -8.30805 1.16803e-007 7.47049 6.44171e-007 -5.64717 11.353 -3.00578 9 -3.38008e-006 -5.22997e-009 21.9831 -10.8224 21.8641 -0.575 -51.431 3.90177 -8.06482 50.8141 -20.5282 2.13082e-007 -43.5882 -3.90177 22.8226 -13.3155 0.338691 -9 6.86154e-007 -3.1954e-009 -20.3579 -15.8557 -20.2971 0.575 -51.4311 3.90177 -11.531 50.2438 34.2847 -7.46079e-007 -43.5882 -3.90177 -11.4499 -16.7444 -0.421096 
47.658 87.765 -12.2624 -0.970065 -5.33795 -7.06108 1.23234e-007 14.8421 1.27319e-009 -3.78018 -0.625712 11.2257 6.64893 27.3161 3.27471 -2.94784 5.93879 -4.20517 10.8584 2.41798 -0.945791 -2.8314 6.97908 11.4046 3.77631 -24.5904 -1.70468 -38.2152 -80.8594 5.2839 1.01026 -21.1231 1.74131 -11.0266 -11.2691 -3.51329 -6.11406 27.2248 4.23427 -1.96452 7.32629 3.42623 -10.4566 2.3285 -0.910794 6.46989 -47.833 10.918 -3.86856 -25.191 -1.74633 106.584 -66.458 104.62 -1.04759 -20.6242 1.75213 -10.0864 6.66935 -0.921015 0.51659 29.8236 6.51843 9.13003 -6.38346 -7.78712 1.16803e-007 7.47049 6.44171e-007 -5.35268 12.0222 -2.87346 9 -3.38008e-006 -5.22997e-009 21.9115 -10.948 21.918 -0.575 -51.431 3.90177 -8.15516 50.8803 -20.2711 2.13082e-007 -43.5882 -3.90177 22.8038 -13.3487 0.345028 -9 6.86154e-007 -3.1954e-009 -20.4693 -16.0699 -20.3204 0.575 -51.4311 3.90177 -11.5886 50.2639 34.442 -7.46079e-007 -43.5882 -3.90177 -11.4553 -16.7362 -0.420682 
